<svg clip-rule="evenodd" fill-rule="evenodd" fill="#A3A3A4" stroke-linejoin="round" stroke-miterlimit="2" viewBox="0 0 24 24" xmlns="http://www.w3.org/2000/svg"><path d="m2.009 11.998c0-5.518 4.48-9.998 9.998-9.998s9.998 4.48 9.998 9.998c0 5.517-4.48 9.997-9.998 9.997s-9.998-4.48-9.998-9.997zm1.5 0c0 4.69 3.808 8.497 8.498 8.497s8.498-3.807 8.498-8.497-3.808-8.498-8.498-8.498-8.498 3.808-8.498 8.498zm4.716 1.528s1.505 1.501 3.259 3.254c.146.147.338.22.53.22s.384-.073.53-.22c1.754-1.752 3.258-3.254 3.258-3.254.145-.145.217-.335.217-.526 0-.192-.074-.384-.221-.53-.292-.293-.766-.295-1.057-.004l-1.977 1.977v-6.693c0-.414-.336-.75-.75-.75s-.75.336-.75.75v6.693l-1.979-1.978c-.289-.289-.761-.287-1.054.006-.147.147-.221.339-.222.53 0 .191.071.38.216.525z" fill-rule="nonzero"/></svg>
